<?xml version="1.0" encoding="utf-8"?>
<!-- Generator: Adobe Illustrator 14.0.0, SVG Export Plug-In . SVG Version: 6.00 Build 43363)  -->
<svg version="1.2" baseProfile="tiny" id="Layer_1" xmlns="http://www.w3.org/2000/svg" xmlns:xlink="http://www.w3.org/1999/xlink"
	 x="0px" y="0px" width="100px" height="100px" viewBox="0 0 100 100" xml:space="preserve">
<path fill="#FFFFFF" d="M50-0.107C22.371-0.107-0.107,22.371-0.107,50c0,27.63,22.479,50.106,50.107,50.106
	c27.63,0,50.106-22.477,50.106-50.106C100.106,22.371,77.63-0.107,50-0.107z"/>
<path fill="#E3E3E3" d="M50,3.226C24.209,3.226,3.226,24.209,3.226,50c0,25.792,20.983,46.773,46.774,46.773
	c25.792,0,46.773-20.981,46.773-46.773C96.773,24.209,75.792,3.226,50,3.226z"/>
<path fill="#FFFFFF" d="M50,0C22.43,0,0,22.43,0,50s22.43,50,50,50s50-22.43,50-50S77.57,0,50,0z M50,96.773
	C24.209,96.773,3.226,75.792,3.226,50C3.226,24.209,24.209,3.226,50,3.226c25.792,0,46.773,20.983,46.773,46.774
	C96.773,75.792,75.792,96.773,50,96.773z"/>
<rect x="23.506" y="31.959" fill="#8EBFBB" width="52.987" height="10.785"/>
<rect x="55.131" y="15.3" fill="#86A3A1" width="11.306" height="69.4"/>
<rect x="23.506" y="57.256" fill="#B9D5D2" width="52.987" height="10.785"/>
<rect x="33.559" y="15.3" fill="#A4CAC7" width="11.307" height="69.4"/>
</svg>
